<svg width="800" height="800" viewBox="0 0 800 800" fill="none" xmlns="http://www.w3.org/2000/svg">
<path d="M664.7 47.4C660.45 45.1 655.4 43.75 650.025 43.75C643.5 43.75 637.45 45.75 632.425 49.175L632.525 49.1C481.2 151.1 311.8 200.275 47.8 218.825C31.525 220 18.75 233.525 18.75 250V550C18.75 566.65 31.775 580.25 48.175 581.2H48.25C64 582.075 78.6 583.525 93.725 584.7V750C93.725 767.25 107.725 781.25 124.975 781.25H249.975C267.225 781.25 281.225 767.25 281.225 750V609.85C414.35 636.425 532.45 685.625 637.125 753.75L633.225 751.375C637.975 754.425 643.775 756.25 649.975 756.25C655.5 756.25 660.675 754.825 665.15 752.3L665 752.375C674.725 746.975 681.225 736.75 681.225 725.025C681.225 725 681.225 725 681.225 724.975V74.975C681.225 63.1 674.6 52.775 664.85 47.475L664.7 47.4ZM81.25 278.975C149.625 273.45 211.3 265.425 268.75 255.15V543.775C224.35 535.65 177.5 529.35 127.75 524.775C126.8 524.7 125.975 524.225 125 524.225C124.625 524.225 124.3 524.425 123.925 524.45C109.725 523.175 95.95 521.675 81.25 520.675V278.975ZM218.75 718.75H156.25V590.45C177.5 592.825 198.625 595.25 218.75 598.35V718.75ZM618.75 669.575C535.925 621.075 440 582.275 338.375 558.225L331.25 556.8V242.65C439.8 219.125 535.925 180.8 623.3 129.225L618.75 131.7V669.575ZM750 268.75C732.75 268.75 718.75 282.75 718.75 300V500C718.75 517.25 732.75 531.25 750 531.25C767.25 531.25 781.25 517.25 781.25 500V300C781.25 282.75 767.25 268.75 750 268.75Z" fill="#F9F9F9"/>
</svg>
