<svg width="800" height="786" viewBox="0 0 800 786" fill="none" xmlns="http://www.w3.org/2000/svg">
<path d="M337.174 432.31C337.174 454.996 318.784 473.387 296.098 473.387C273.413 473.387 255.024 454.997 255.024 432.31C255.024 409.625 273.413 391.234 296.098 391.234C318.784 391.235 337.174 409.626 337.174 432.31ZM503.902 391.235C481.217 391.235 462.826 409.625 462.826 432.312C462.826 454.997 481.217 473.387 503.902 473.387C526.587 473.387 544.979 454.997 544.979 432.312C544.978 409.626 526.588 391.235 503.902 391.235ZM800 409.414V487.478C800 526.671 768.229 558.442 729.035 558.442H677.54C626.514 700.12 496.214 785.695 400 785.695C303.786 785.695 173.486 700.12 122.46 558.441H70.9647C31.7712 558.441 0 526.671 0 487.477V409.413C0 382.444 15.0471 358.991 37.2026 346.984C37.9464 236.154 70.2484 149.596 133.35 89.7569C195.941 30.4026 285.655 0.304565 400 0.304565C514.345 0.304565 604.059 30.4026 666.65 89.7555C729.75 149.595 762.051 236.154 762.797 346.983C784.953 358.991 800 382.444 800 409.414ZM649.803 432.57C649.803 414.31 648.868 397.153 647.488 380.528C615.993 351.714 558.818 329.85 486.66 321.726C496.135 332.379 504.319 346.393 509.282 364.841C465.084 330.021 378.327 338.308 312.705 260.39C308.942 256.038 305.689 251.88 302.876 248.08C302.843 248.034 302.807 247.999 302.774 247.954L302.782 247.957C291.107 232.169 287.127 222.778 286.905 233.173C284.979 322.732 221.501 392.552 151.012 402.401C150.566 412.251 150.201 422.196 150.201 432.571C150.201 470.426 156.383 504.927 166.893 536.018C206.488 583.779 271.876 597.265 329.75 600.842C340.494 583.749 364.6 571.816 392.673 571.816C430.735 571.816 461.588 593.716 461.588 620.736C461.588 647.753 430.733 669.654 392.673 669.654C363.396 669.654 338.447 656.673 328.461 638.396C288.013 636.044 243.548 629.149 203.918 610.434C259.648 692.582 346.046 736.02 400 736.02C484.783 736.02 649.803 628.915 649.803 432.57ZM720.072 338.45C715.556 145.05 605.165 42.885 400 42.885C194.835 42.885 84.4458 145.05 79.9281 338.45H107.231C117.214 273.264 138.314 219.655 170.349 178.434C221.399 112.75 298.664 79.4444 400 79.4444C501.336 79.4444 578.601 112.75 629.654 178.434C661.686 219.654 682.787 273.264 692.77 338.45H720.072Z" fill="#F9F9F9"/>
</svg>
