<svg width="800" height="800" viewBox="0 0 800 800" fill="none" xmlns="http://www.w3.org/2000/svg">
<path d="M674 318.333C659.667 301.333 639 291.667 616.667 291.667H482.333V200C482.333 149.333 441.333 108.333 388 108.333C364.667 108.333 343.667 122.333 334.333 144L249.667 341.667H187.333C143.667 341.667 108.333 377 108.333 420.667V613C108.333 656.333 144 691.667 187.333 691.667H572.667C609 691.667 640 665.667 646.333 629.667L690.333 379.667C694 357.667 688 335.333 673.667 318.333H674ZM187.333 641.667C171.333 641.667 158.333 628.667 158.333 613V420.667C158.333 404.667 171.333 391.667 187.333 391.667H241V641.667H187.333ZM597.333 621C595.333 633 585 641.667 572.667 641.667H291.333V371.667L380.333 163.333C381.667 160.333 384.667 158 391 158C414 158 432.333 176.667 432.333 199.667V341.333H616.667C624.333 341.333 631 344.333 635.667 350C640.333 355.667 642.333 363 641 370.667L597 620.667L597.333 621Z" fill="#F9F9F9"/>
</svg>
