<svg width="800" height="800" viewBox="0 0 800 800" fill="none" xmlns="http://www.w3.org/2000/svg">
<path d="M700 466.667C700 485.077 685.077 500 666.667 500H566.667V100H666.667C685.077 100 700 114.924 700 133.333V466.667Z" stroke="#F9F9F9" stroke-width="66.6667" stroke-linecap="round" stroke-linejoin="round"/>
<path d="M566.667 433.333V166.667L500.257 122.393C478.353 107.792 452.62 100 426.297 100H251.379C202.495 100 160.776 135.341 152.74 183.56L112.938 422.373C106.165 463.01 137.501 500 178.697 500H333.333" stroke="#F9F9F9" stroke-width="66.6667" stroke-linecap="round" stroke-linejoin="round"/>
<path d="M333.333 500L310.428 614.527C304.47 644.313 321.625 673.877 350.443 683.48C378.88 692.96 409.957 680.087 423.36 653.277L533.333 433.333H566.667" stroke="#F9F9F9" stroke-width="66.6667" stroke-linecap="round" stroke-linejoin="round"/>
</svg>
