<svg width="1200" height="1200" viewBox="0 0 1200 1200" fill="none" xmlns="http://www.w3.org/2000/svg">
<g clip-path="url(#clip0_9_15)">
<path d="M750.016 376.447C745.356 349.912 741.691 323.373 738.288 296.833L737.047 286.88L736.437 281.904L736.289 280.66C736.238 280.254 736.198 279.789 736.12 279.519L735.72 277.653C734.668 272.716 732.784 268.153 730.22 264.159C727.631 260.183 724.45 256.717 720.778 254.062C717.112 251.41 713.115 249.446 709.007 248.341C704.901 247.234 700.759 246.86 696.718 247.249L678.147 248.95L658.238 250.685C651.602 251.257 644.965 251.813 638.329 252.325C611.783 254.467 585.235 256.323 558.686 257.966C545.412 258.816 532.137 259.551 518.862 260.284L513.884 260.562L511.395 260.69L510.773 260.721L510.468 260.737L510.351 260.767L509.887 260.875C509.579 260.941 509.273 260.996 508.967 261.038C508.661 261.08 508.35 261.088 508.067 261.224C507.493 261.445 506.903 261.539 506.339 261.726C504.084 262.465 502.108 263.752 500.345 265.204C498.589 266.677 497.118 268.466 496.047 270.392C494.987 272.328 494.278 274.345 493.949 276.381C493.741 277.391 493.756 278.436 493.727 279.47C493.762 279.737 493.785 280 493.795 280.262L493.8 280.654L493.796 280.85L493.792 280.948L493.8 281.214L493.989 286.192L494.63 306.106C495.496 332.658 496.102 359.211 496.603 385.765C496.754 392.403 496.815 399.042 496.915 405.681L496.919 405.992L496.909 406.524L496.883 407.601L496.816 409.756L496.621 414.065C496.577 415.5 496.379 416.934 496.187 418.368C495.996 419.802 495.792 421.234 495.573 422.665C495.214 425.537 494.424 428.341 493.747 431.161C493.366 432.56 493.076 433.987 492.581 435.352C492.118 436.727 491.642 438.099 491.152 439.466C483.215 461.336 467.094 479.809 446.625 490.771C444.034 492.079 441.431 493.38 438.767 494.527C436.061 495.584 433.328 496.59 430.583 497.54C427.793 498.344 424.974 499.075 422.152 499.76C419.319 500.376 416.441 500.768 413.575 501.197C412.14 501.434 410.705 501.532 409.266 501.616L404.948 501.849C401.524 502.014 400.573 501.943 398.764 501.963L388.805 501.979L348.97 501.784C335.691 501.625 322.413 501.539 309.133 501.319L272.203 500.668C270.233 500.659 268.329 500.971 266.461 501.652C264.596 502.317 262.749 503.328 261.128 504.698C259.498 506.058 258.116 507.743 257.04 509.607C255.987 511.488 255.27 513.558 254.941 515.867L254.853 516.299L254.802 516.516C254.794 516.56 254.783 516.572 254.776 516.642L254.765 516.953L254.678 519.443L254.483 524.423L254.076 534.383L253.242 554.304C252.616 567.585 252.027 580.866 251.293 594.147C250.627 607.428 249.81 620.71 249.038 633.992C248.182 647.274 247.357 660.556 246.391 673.839C245.934 680.48 245.454 687.122 244.935 693.763L243.676 710.643C243.58 714.451 244.195 718.342 245.566 722.123C246.934 725.903 249.086 729.524 251.862 732.755C254.634 735.998 258.091 738.763 262.013 740.909L263.491 741.738C264.001 741.971 264.528 742.163 265.049 742.388L266.625 743.065C267.146 743.332 267.712 743.406 268.258 743.596L269.92 744.108C270.199 744.19 270.476 744.3 270.76 744.365L271.621 744.523L273.357 744.873L274.234 745.061C274.398 745.09 274.489 745.132 274.714 745.151L275.337 745.216C288.621 746.585 301.906 748.063 315.192 749.621C341.763 752.79 368.335 756.228 394.912 760.67C368.378 765.359 341.838 769.044 315.298 772.459C302.028 774.141 288.757 775.743 275.486 777.234L274.864 777.305C274.674 777.332 274.351 777.336 274.1 777.351L272.49 777.425L269.252 777.547L267.626 777.591C267.084 777.589 266.544 777.537 266.001 777.511L262.737 777.295C261.651 777.191 260.542 777.19 259.467 776.982L256.215 776.441C255.13 776.248 254.035 776.074 252.954 775.845L249.749 774.984C241.184 772.647 232.99 768.618 225.688 763.222C218.383 757.822 212.03 750.971 207.02 743.099C201.997 735.231 198.524 726.243 196.709 716.898L196.343 715.145C196.223 714.56 196.177 713.97 196.094 713.381L195.672 709.831L195.479 708.048L195.326 706.441L195.113 703.952L194.262 693.997C193.681 687.36 193.139 680.724 192.621 674.087C191.531 660.814 190.583 647.54 189.604 634.267C188.708 620.993 187.768 607.719 186.978 594.445C186.12 581.171 185.408 567.896 184.659 554.622L183.64 534.709L183.14 524.753L182.898 519.775L182.788 517.286L182.774 516.975V516.479L182.78 515.452L182.806 513.397C182.892 502.446 185.004 491.324 189.082 480.95C193.14 470.557 199.25 461.007 206.794 452.782C214.355 444.566 223.434 437.671 233.552 432.639C243.662 427.609 254.784 424.445 266.039 423.36L270.264 423.055C271.61 422.969 273.341 422.875 273.913 422.868L278.891 422.708L288.848 422.439L308.763 421.919C322.039 421.576 335.317 421.367 348.593 421.084L388.425 420.519L398.383 420.442C399.894 420.426 402.264 420.437 402.153 420.344C402.371 420.317 402.588 420.303 402.807 420.303C403.027 420.31 403.25 420.331 403.448 420.244C403.852 420.113 404.283 420.13 404.688 420.036C405.075 419.874 405.472 419.78 405.886 419.72C406.253 419.514 406.632 419.365 407.038 419.266C407.407 419.073 407.752 418.836 408.156 418.715C409.631 417.936 411.009 416.86 412.147 415.575C413.297 414.294 414.156 412.814 414.789 411.283C414.862 411.089 414.949 410.899 415.05 410.713C415.184 410.536 415.139 410.305 415.213 410.11C415.276 409.697 415.562 409.335 415.534 408.892C415.558 408.68 415.596 408.471 415.649 408.263C415.702 408.056 415.791 407.851 415.753 407.622C415.75 407.4 415.761 407.179 415.786 406.957L415.833 406.625L415.864 406.458L415.881 406.369L415.882 406.058C415.92 399.419 415.92 392.78 416.009 386.14C416.263 359.583 416.622 333.024 417.241 306.466L417.697 286.547L417.84 281.567L417.929 279.639L418.049 277.544L418.345 273.362C418.963 267.799 419.951 262.252 421.567 256.872C424.699 246.098 429.814 235.953 436.554 227.156C443.275 218.342 451.556 210.818 460.894 205.001C470.226 199.19 480.651 195.098 491.406 193.112C494.087 192.618 496.801 192.315 499.498 191.983C500.847 191.791 502.198 191.754 503.55 191.706L507.601 191.595L509.623 191.566L510.128 191.561L510.446 191.573L511.068 191.598L513.558 191.703L518.538 191.935C531.819 192.545 545.1 193.157 558.381 193.883C584.944 195.279 611.507 196.888 638.072 198.783C644.713 199.233 651.355 199.727 657.996 200.237L677.92 201.787L687.882 202.598L692.863 203.006L695.709 203.269L699.175 203.645C708.379 204.782 717.346 207.561 725.356 211.875C733.369 216.176 740.489 221.858 746.237 228.576C752.004 235.273 756.43 242.972 759.264 251.105C762.124 259.229 763.392 267.779 763.083 276.086L762.957 279.191C762.943 279.75 762.886 280.115 762.843 280.539L762.706 281.785L762.142 286.767L760.993 296.731C757.848 323.298 754.429 349.871 750.016 376.447Z" fill="#528AC8"/>
<path d="M630.47 569.762C626.822 571.707 623.151 573.546 619.556 575.541C615.927 577.449 612.36 579.471 608.805 581.476C601.71 585.525 594.748 589.718 587.981 594.139C581.186 598.507 574.618 603.148 568.235 607.93C565.032 610.308 561.937 612.809 558.834 615.267C555.796 617.813 552.753 620.324 549.837 622.966C543.953 628.179 538.334 633.608 533.074 639.282C527.855 644.952 522.956 650.687 518.621 656.802L516.971 659.064C516.427 659.821 515.939 660.618 515.421 661.391C514.412 662.956 513.347 664.472 512.364 666.04L509.518 670.796C509.03 671.575 508.584 672.382 508.16 673.201L506.858 675.633L505.556 678.055C505.14 678.872 504.762 679.713 504.362 680.536C503.581 682.197 502.733 683.808 502.006 685.49L499.849 690.529C499.135 692.206 498.545 693.95 497.886 695.648C495.399 702.522 493.172 709.472 491.542 716.667C489.886 723.842 488.431 731.08 487.485 738.509L487.093 741.275L486.787 744.078L486.168 749.691C485.83 753.577 485.418 757.45 485.137 761.327C484.895 765.207 484.538 769.069 484.399 772.944L484.101 778.743C483.997 780.674 483.971 782.613 483.901 784.545C483.435 800.013 483.664 815.474 484.476 831.202C484.822 839.043 485.331 846.995 485.859 854.971L487.577 879.189C488.149 887.323 488.773 895.537 489.279 903.799L490.898 927.692L491.402 933.483L491.66 936.158L491.792 937.44L491.938 938.637C492.325 941.809 492.81 944.419 493.367 946.409C493.926 948.409 494.52 949.773 495.127 950.745C495.304 950.966 495.423 951.224 495.586 951.435C495.771 951.629 495.88 951.863 496.063 952.053C496.154 952.147 496.24 952.244 496.32 952.345C496.4 952.447 496.454 952.545 496.594 952.676C496.836 952.92 497.039 953.188 497.266 953.44C499.133 955.419 501.558 957.019 504.149 958.028C506.746 959.033 509.451 959.461 511.888 959.244L535.656 958.496L560.169 957.834C592.852 956.94 625.537 956.305 658.222 955.776L682.736 955.443L694.993 955.295L696.47 955.273C696.606 955.243 696.741 955.219 696.876 955.2C697.146 955.161 697.416 955.144 697.689 955.146C697.971 955.196 698.21 955.043 698.469 955.005C698.724 954.949 698.981 954.914 699.244 954.899C701.248 954.436 703.105 953.521 704.775 952.238C706.42 950.95 707.909 949.32 708.75 947.441C709.648 945.591 710.189 943.677 710.274 941.512C710.289 941.378 710.31 941.244 710.336 941.109L710.338 939.643L710.331 936.578L710.318 930.449L710.292 918.191L710.444 869.159L710.866 820.126C710.913 817.919 710.852 816.691 711.067 812.542C711.155 810.792 711.263 809.042 711.392 807.298C711.522 805.554 711.848 803.812 712.098 802.072C712.376 800.334 712.651 798.595 712.989 796.871C713.403 795.158 713.838 793.449 714.292 791.746C715.119 788.316 716.372 785.02 717.625 781.729C717.943 780.909 718.252 780.085 718.591 779.274L719.715 776.89C720.474 775.305 721.251 773.729 722.046 772.164C722.426 771.372 722.873 770.619 723.327 769.869L724.687 767.62C725.609 766.13 726.522 764.633 727.508 763.191C728.54 761.781 729.59 760.383 730.655 758.998C731.724 757.617 732.771 756.219 733.972 754.952C736.331 752.382 738.637 749.762 741.285 747.491C751.554 738.094 763.925 730.997 777.259 726.936C780.622 726.057 783.992 725.132 787.405 724.539C789.118 724.271 790.834 724.022 792.551 723.794L795.126 723.467C795.984 723.378 796.844 723.357 797.703 723.306C799.422 723.221 801.143 723.154 802.861 723.108L804.149 723.077L804.793 723.064L805.204 723.071L806.736 723.106L812.866 723.244C829.211 723.58 845.557 724.054 861.903 724.502C878.249 724.964 894.595 725.518 910.942 726.07L923.202 726.526L929.332 726.754L932.397 726.868L933.163 726.897L933.539 726.91L933.691 726.907L934.301 726.911C937.571 727.096 940.818 726.673 943.986 725.461L944.294 725.37L944.572 725.22L945.14 724.934C945.521 724.746 945.924 724.588 946.32 724.412C946.674 724.17 947.038 723.942 947.415 723.724C947.781 723.495 948.212 723.338 948.525 723.032C949.179 722.465 950.008 722.061 950.602 721.406C950.929 721.109 951.27 720.821 951.626 720.54C951.957 720.239 952.213 719.876 952.532 719.559C954.959 716.939 956.965 713.787 958 710.199C958.097 709.744 958.22 709.291 958.353 708.836L958.567 708.152C958.65 707.925 958.636 707.68 958.681 707.444C958.745 706.968 958.824 706.491 958.918 706.011L958.991 705.65C959.014 705.503 959.051 705.483 959.057 705.166L959.136 703.634L959.768 691.373L961.112 666.851C962.963 634.155 965.056 601.458 967.459 568.759C968.669 552.41 969.935 536.06 971.305 519.71L971.563 516.644L971.627 515.878C971.648 515.628 971.675 515.338 971.679 515.187L971.741 514.083L971.899 511.852L971.943 511.289L971.915 510.734L971.868 509.619C971.84 508.873 971.818 508.12 971.81 507.36L971.511 505.123C971.389 504.379 971.379 503.594 971.18 502.863L970.649 500.633L970.395 499.5C970.294 499.128 970.144 498.774 970.023 498.408L969.269 496.201C969.063 495.435 968.657 494.769 968.35 494.045L967.386 491.873L966.193 489.814C965.776 489.137 965.451 488.376 964.946 487.757L963.542 485.786C963.303 485.459 963.087 485.106 962.829 484.794L962.025 483.881C957.838 478.878 952.423 474.682 946.17 471.771C945.385 471.422 944.572 471.143 943.768 470.816C942.956 470.52 942.158 470.129 941.32 469.895L938.788 469.195C937.939 468.958 937.088 468.67 936.21 468.564L933.575 468.102L932.23 467.867L930.697 467.703L924.565 467.036C908.213 465.182 891.861 463.357 875.506 461.08C891.838 458.652 908.173 456.675 924.507 454.668L930.632 453.944L932.163 453.766L933.88 453.662L937.367 453.481C938.538 453.381 939.701 453.469 940.874 453.524L944.405 453.72C945.586 453.797 946.741 454.042 947.918 454.203C949.088 454.396 950.276 454.552 951.445 454.791C960.781 456.806 969.798 461.059 977.586 467.164L979.06 468.302C979.541 468.693 979.981 469.129 980.443 469.543L983.181 472.088C984.129 472.914 984.895 473.9 985.75 474.819L988.246 477.654L990.489 480.705C991.209 481.745 992.021 482.739 992.627 483.854L994.559 487.156C994.873 487.713 995.212 488.26 995.501 488.83L996.313 490.57L997.915 494.085C998.46 495.259 998.805 496.501 999.252 497.718C999.668 498.943 1000.1 500.172 1000.48 501.414L1001.38 505.209L1001.81 507.121L1002.02 508.08L1002.15 509.046L1002.65 512.935L1002.88 514.891L1003.04 516.497L1003.32 519.56C1004.85 535.897 1006.26 552.234 1007.63 568.571C1010.33 601.246 1012.73 633.922 1014.88 666.6L1016.46 691.108L1017.2 703.362L1017.29 704.894C1017.32 705.087 1017.31 705.577 1017.32 705.941L1017.32 707.11C1017.32 708.67 1017.3 710.234 1017.27 711.799C1017.25 712.581 1017.27 713.365 1017.19 714.147L1016.95 716.494C1016.79 718.06 1016.61 719.628 1016.41 721.194C1012.65 746.287 996.843 769.48 974.179 782.251C962.888 788.656 949.979 792.57 936.926 793.394L934.477 793.566L933.474 793.623L932.708 793.659L929.644 793.801L923.516 794.086L911.261 794.656C894.92 795.359 878.58 796.065 862.239 796.679C845.898 797.28 829.557 797.905 813.216 798.393L807.088 798.589L805.556 798.638L805.201 798.652L805.08 798.681L804.838 798.734C804.517 798.8 804.197 798.846 803.876 798.873C803.717 798.895 803.552 798.877 803.398 798.917C803.247 798.972 803.096 799.021 802.946 799.066C802.645 799.155 802.343 799.224 802.038 799.274C801.962 799.288 801.884 799.293 801.809 799.312L801.597 799.412C801.455 799.476 801.314 799.536 801.171 799.59C800.885 799.696 800.594 799.778 800.297 799.843C798.064 800.789 796.05 802.223 794.405 804C793.917 804.367 793.667 804.96 793.251 805.386C793.02 805.584 792.916 805.882 792.76 806.135C792.609 806.392 792.443 806.635 792.259 806.867C792.124 807.13 792.034 807.417 791.888 807.668C791.819 807.796 791.747 807.922 791.669 808.045C791.587 808.166 791.503 808.286 791.479 808.435C791.396 808.715 791.295 808.983 791.175 809.243C791.115 809.373 791.051 809.5 790.981 809.626C790.943 809.765 790.927 809.91 790.892 810.048C790.772 810.604 790.495 811.108 790.487 811.69C790.442 811.968 790.377 812.24 790.292 812.508C790.281 812.795 790.293 813.085 790.261 813.365C790.257 813.651 790.139 813.916 790.171 814.212C790.206 814.508 790.22 814.8 790.215 815.09C790.151 815.02 790.225 817.881 790.268 819.759L791.146 868.786L791.754 917.815L791.842 930.072L791.886 936.201L791.908 939.265L791.915 940.863L791.837 943.522C791.518 957.689 787.953 971.992 781.441 984.705C774.976 997.465 765.507 1008.53 754.181 1017.14C742.851 1025.72 729.528 1031.89 715.498 1034.66C713.743 1034.96 711.982 1035.24 710.219 1035.51C708.455 1035.75 706.692 1036.06 704.925 1036.13C703.158 1036.25 701.388 1036.34 699.618 1036.41L696.965 1036.51H695.377L683.119 1036.47L658.603 1036.37C625.914 1036.14 593.226 1035.81 560.535 1035.22L536.017 1034.79L510.756 1034.2C503.81 1033.99 496.929 1033 490.303 1031.24C483.673 1029.49 477.302 1026.97 471.29 1023.82C459.276 1017.52 448.673 1008.61 440.494 997.681C439.479 996.313 438.517 994.9 437.552 993.496C436.59 992.099 435.661 990.489 434.753 988.975C433.845 987.437 433.055 985.831 432.235 984.247C431.441 982.654 430.754 981.031 430.043 979.413C427.325 972.914 425.616 966.385 424.556 960.381C423.494 954.358 423.05 948.834 422.822 943.859L422.742 942L422.692 940.223C422.655 939.015 422.635 937.9 422.626 936.778L422.603 930.322L422.986 905.2L423.518 880.793C423.831 864.417 424.314 847.713 425.286 830.733C425.782 822.26 426.494 813.7 427.313 805.149C427.793 800.86 428.191 796.587 428.794 792.303L429.644 785.886C429.93 783.748 430.285 781.613 430.604 779.479C431.861 770.937 433.479 762.449 435.226 754.024C436.095 749.81 437.095 745.633 438.026 741.446C438.521 739.329 439.095 737.146 439.638 735.007L440.464 731.786L441.389 728.566C443.771 719.992 446.673 711.451 450.043 703.081C453.367 694.698 457.321 686.478 461.765 678.56C466.177 670.623 471.216 663.009 476.753 655.852L478.837 653.176C479.522 652.279 480.227 651.398 480.975 650.55L485.373 645.417C486.874 643.742 488.435 642.124 489.974 640.496C490.753 639.69 491.504 638.861 492.304 638.08L494.722 635.758C496.351 634.233 497.902 632.632 499.59 631.187L504.599 626.816C506.264 625.362 508.044 624.053 509.757 622.673C511.482 621.303 513.205 619.945 514.974 618.699C521.93 613.514 529.205 608.862 536.582 604.529C543.972 600.21 551.511 596.257 559.204 592.74C566.879 589.192 574.645 585.955 582.527 583.129C598.27 577.444 614.277 572.967 630.47 569.762Z" fill="#528AC8"/>
<path d="M418.655 672.847C417.702 670.177 416.79 667.484 415.947 664.765C415.092 662.048 414.361 659.3 413.592 656.539C413.223 655.157 412.884 653.768 412.555 652.374C412.214 650.981 411.895 649.582 411.61 648.176L410.723 643.947L409.944 639.684C407.95 628.28 407.099 616.535 407.385 604.552C407.652 598.573 408.045 592.512 409.036 586.46C409.434 583.418 410.062 580.394 410.687 577.354C410.967 575.826 411.407 574.33 411.776 572.812C412.175 571.302 412.524 569.77 412.976 568.265C416.513 556.201 421.821 544.276 428.987 533.242L431.806 529.195C432.757 527.848 433.689 526.476 434.742 525.21C436.809 522.645 438.819 519.976 441.094 517.578L444.463 513.904C445.613 512.706 446.827 511.59 448.016 510.429C449.218 509.288 450.405 508.109 451.639 507L455.42 503.78C465.606 495.279 476.863 488.234 488.537 482.591C489.996 481.886 491.455 481.131 492.926 480.471L497.359 478.564L501.821 476.691C503.305 476.09 504.758 475.598 506.232 475.047C509.175 473.997 512.112 472.848 515.088 471.902L519.551 470.428C521.031 469.923 522.586 469.539 524.104 469.09L528.692 467.798L533.25 466.658C536.307 465.864 539.313 465.224 542.335 464.559C548.376 463.261 554.332 462.239 560.246 461.257C583.804 457.522 606.145 455.737 626.327 452.743C628.814 452.35 631.323 451.971 633.743 451.548L640.753 450.163C641.919 449.926 643.093 449.771 644.25 449.472L647.726 448.64C650.039 448.062 652.364 447.603 654.66 446.948C659.245 445.603 663.84 444.404 668.371 442.836L671.779 441.732L673.481 441.176L675.167 440.542L681.907 438.028C717.731 424.045 751.435 402.293 783.18 376.352L783.674 375.948C801.006 361.785 826.537 364.354 840.699 381.686C845.786 387.912 848.706 395.16 849.566 402.595L849.875 405.222L850.12 407.508L850.554 411.94C850.824 414.863 851.064 417.751 851.279 420.628C851.724 426.378 852.019 432.093 852.235 437.802C852.668 449.217 852.825 460.61 852.529 472.028C852.267 483.444 851.693 494.879 850.635 506.334C850.132 512.06 849.528 517.796 848.815 523.533C848.096 529.266 847.219 535.009 846.292 540.75C842.495 563.712 836.72 586.745 828.033 609.407C823.55 620.697 818.519 631.94 812.25 642.801C806.11 653.693 798.825 664.239 790.412 674.066C786.218 678.994 781.631 683.665 776.855 688.137C774.379 690.313 771.987 692.536 769.385 694.578C768.094 695.605 766.848 696.668 765.518 697.651L761.519 700.571L760.51 701.297L759.409 702.041L757.204 703.516C755.739 704.485 754.215 705.538 752.925 706.186L744.868 710.606C742.165 712.132 739.529 713.315 736.879 714.6C734.225 715.853 731.604 717.162 728.934 718.349C707.542 727.779 685.399 734.612 662.986 738.885C640.551 743.066 617.829 744.586 595.497 743.421C573.176 742.191 551.199 738.317 530.594 731.151C552.336 729.431 573.291 726.151 593.471 721.055C613.641 716.004 633.027 709.294 651.435 701.061C669.807 692.739 687.211 682.963 703.27 671.906C705.277 670.527 707.21 669.048 709.177 667.634C711.122 666.206 713.153 664.796 714.878 663.337L720.265 659.069C721.269 658.343 721.813 657.704 722.472 657.059L723.445 656.102L723.932 655.629L724.46 655.074C727.338 652.145 730.054 649.036 732.638 645.811C735.161 642.499 737.568 639.094 739.831 635.522C748.78 621.165 755.436 604.486 760.216 586.648C765.037 568.797 768.061 549.863 769.94 530.534C770.386 525.692 770.8 520.84 771.078 515.947C771.393 511.062 771.675 506.162 771.839 501.237C772.026 496.316 772.111 491.378 772.169 486.429C772.235 481.481 772.248 476.525 772.169 471.56C771.988 461.635 771.698 451.681 771.085 441.777C770.777 436.828 770.406 431.89 770.02 427.001C769.819 424.558 769.597 422.13 769.359 419.741L768.987 416.21L768.625 413.171L835.011 439.414C816.519 454.568 796.847 468.781 775.552 481.098C770.314 484.28 764.78 487.081 759.353 490.009C756.606 491.43 753.795 492.767 751.018 494.144L746.84 496.19L742.579 498.116L734.011 501.867L725.274 505.327C723.81 505.888 722.378 506.502 720.889 507.017L716.437 508.583C713.46 509.608 710.526 510.707 707.498 511.609L698.424 514.313L696.156 514.983L693.856 515.575L689.251 516.739C686.171 517.481 683.141 518.358 680.008 518.925L670.674 520.775C667.562 521.376 664.397 521.774 661.265 522.273L656.557 522.978C654.993 523.231 653.398 523.338 651.821 523.523L642.337 524.441C639.245 524.676 636.229 524.839 633.194 525.018C609.152 526.177 587.04 525.331 566.376 525.775C563.831 525.857 561.238 525.895 558.72 526.007C556.227 526.14 553.655 526.212 551.214 526.389C548.747 526.544 546.253 526.672 543.856 526.918L540.216 527.239L536.657 527.668C534.289 527.917 531.881 528.306 529.465 528.672C527.036 528.999 524.671 529.51 522.259 529.92C521.069 530.145 519.827 530.331 518.671 530.586L515.246 531.381L511.791 532.142C510.649 532.413 509.556 532.76 508.429 533.062C490.435 537.951 474.124 546.104 460.608 558.675L458.15 561.114C457.34 561.942 456.459 562.722 455.718 563.619C454.185 565.372 452.556 567.083 451.129 568.973L448.898 571.766L446.816 574.702L445.762 576.178C445.421 576.678 445.114 577.2 444.786 577.712L442.81 580.801C437.716 589.195 433.55 598.531 430.144 608.427C423.47 628.306 420.176 650.257 418.655 672.847Z" fill="#7CC7B9"/>
<path d="M413.115 1107.26C412.842 1104.51 411.672 1102.37 409.604 1100.85C407.536 1099.33 404.729 1098.57 401.183 1098.57C398.774 1098.57 396.74 1098.91 395.081 1099.59C393.422 1100.25 392.149 1101.17 391.263 1102.35C390.399 1103.53 389.967 1104.88 389.967 1106.38C389.922 1107.62 390.183 1108.72 390.751 1109.65C391.342 1110.58 392.149 1111.39 393.172 1112.07C394.195 1112.73 395.376 1113.31 396.717 1113.81C398.058 1114.28 399.49 1114.69 401.013 1115.03L407.286 1116.53C410.331 1117.22 413.126 1118.12 415.672 1119.26C418.217 1120.4 420.422 1121.8 422.286 1123.45C424.149 1125.11 425.592 1127.07 426.615 1129.32C427.661 1131.57 428.195 1134.15 428.217 1137.06C428.195 1141.33 427.104 1145.03 424.945 1148.17C422.808 1151.28 419.717 1153.7 415.672 1155.43C411.649 1157.14 406.797 1157.99 401.115 1157.99C395.479 1157.99 390.57 1157.12 386.388 1155.4C382.229 1153.67 378.979 1151.11 376.638 1147.73C374.32 1144.32 373.104 1140.1 372.99 1135.08H387.274C387.433 1137.42 388.104 1139.37 389.286 1140.94C390.49 1142.49 392.092 1143.66 394.092 1144.45C396.115 1145.23 398.399 1145.61 400.945 1145.61C403.445 1145.61 405.615 1145.25 407.456 1144.52C409.32 1143.8 410.763 1142.78 411.786 1141.49C412.808 1140.19 413.32 1138.7 413.32 1137.02C413.32 1135.45 412.854 1134.14 411.922 1133.07C411.013 1132 409.672 1131.09 407.899 1130.34C406.149 1129.59 404.001 1128.91 401.456 1128.3L393.854 1126.39C387.967 1124.95 383.32 1122.72 379.911 1119.67C376.501 1116.62 374.808 1112.52 374.831 1107.36C374.808 1103.14 375.933 1099.44 378.206 1096.28C380.501 1093.12 383.649 1090.66 387.649 1088.89C391.649 1087.11 396.195 1086.23 401.286 1086.23C406.467 1086.23 410.99 1087.11 414.854 1088.89C418.74 1090.66 421.763 1093.12 423.922 1096.28C426.081 1099.44 427.195 1103.1 427.263 1107.26H413.115ZM452.805 1157.99C449.464 1157.99 446.487 1157.41 443.874 1156.25C441.26 1155.07 439.192 1153.33 437.669 1151.03C436.169 1148.72 435.419 1145.83 435.419 1142.38C435.419 1139.47 435.953 1137.02 437.021 1135.05C438.089 1133.07 439.544 1131.48 441.385 1130.27C443.226 1129.07 445.317 1128.16 447.658 1127.55C450.021 1126.93 452.499 1126.5 455.089 1126.25C458.135 1125.93 460.589 1125.64 462.453 1125.36C464.317 1125.07 465.669 1124.64 466.51 1124.07C467.351 1123.5 467.771 1122.66 467.771 1121.55V1121.34C467.771 1119.18 467.089 1117.51 465.726 1116.33C464.385 1115.15 462.476 1114.56 459.999 1114.56C457.385 1114.56 455.305 1115.14 453.76 1116.3C452.214 1117.43 451.192 1118.86 450.692 1120.59L437.26 1119.5C437.942 1116.32 439.283 1113.57 441.283 1111.25C443.283 1108.91 445.862 1107.11 449.021 1105.86C452.203 1104.59 455.885 1103.95 460.067 1103.95C462.976 1103.95 465.76 1104.3 468.419 1104.98C471.101 1105.66 473.476 1106.72 475.544 1108.15C477.635 1109.58 479.283 1111.42 480.487 1113.67C481.692 1115.9 482.294 1118.57 482.294 1121.68V1157H468.521V1149.74H468.112C467.271 1151.38 466.146 1152.82 464.737 1154.07C463.328 1155.3 461.635 1156.26 459.658 1156.97C457.68 1157.65 455.396 1157.99 452.805 1157.99ZM456.964 1147.97C459.101 1147.97 460.987 1147.55 462.624 1146.7C464.26 1145.84 465.544 1144.68 466.476 1143.23C467.408 1141.77 467.874 1140.12 467.874 1138.28V1132.73C467.419 1133.02 466.794 1133.3 465.999 1133.55C465.226 1133.77 464.351 1133.99 463.374 1134.19C462.396 1134.37 461.419 1134.55 460.442 1134.7C459.464 1134.84 458.578 1134.97 457.783 1135.08C456.078 1135.33 454.589 1135.73 453.317 1136.27C452.044 1136.82 451.055 1137.56 450.351 1138.49C449.646 1139.4 449.294 1140.53 449.294 1141.9C449.294 1143.88 450.01 1145.39 451.442 1146.43C452.896 1147.45 454.737 1147.97 456.964 1147.97ZM527.141 1134.7V1104.64H541.663V1157H527.72V1147.49H527.175C525.993 1150.56 524.027 1153.02 521.277 1154.89C518.55 1156.75 515.22 1157.68 511.288 1157.68C507.788 1157.68 504.709 1156.89 502.05 1155.3C499.391 1153.7 497.311 1151.44 495.811 1148.51C494.334 1145.58 493.584 1142.07 493.561 1137.98V1104.64H508.084V1135.39C508.107 1138.48 508.936 1140.92 510.572 1142.72C512.209 1144.51 514.402 1145.41 517.152 1145.41C518.902 1145.41 520.538 1145.01 522.061 1144.22C523.584 1143.4 524.811 1142.19 525.743 1140.6C526.697 1139.01 527.163 1137.05 527.141 1134.7ZM572.575 1157.85C568.598 1157.85 564.996 1156.83 561.768 1154.78C558.564 1152.72 556.018 1149.68 554.132 1145.68C552.268 1141.66 551.337 1136.73 551.337 1130.89C551.337 1124.89 552.303 1119.9 554.234 1115.92C556.166 1111.92 558.734 1108.93 561.939 1106.95C565.166 1104.95 568.7 1103.95 572.541 1103.95C575.473 1103.95 577.916 1104.45 579.871 1105.45C581.848 1106.43 583.439 1107.66 584.643 1109.14C585.871 1110.59 586.803 1112.02 587.439 1113.43H587.882V1087.18H602.371V1157H588.053V1148.61H587.439C586.757 1150.07 585.791 1151.51 584.541 1152.94C583.314 1154.35 581.712 1155.52 579.734 1156.45C577.78 1157.39 575.393 1157.85 572.575 1157.85ZM577.178 1146.3C579.518 1146.3 581.496 1145.66 583.109 1144.39C584.746 1143.09 585.996 1141.28 586.859 1138.97C587.746 1136.65 588.189 1133.93 588.189 1130.82C588.189 1127.7 587.757 1125 586.893 1122.7C586.03 1120.41 584.78 1118.64 583.143 1117.39C581.507 1116.14 579.518 1115.51 577.178 1115.51C574.791 1115.51 572.78 1116.16 571.143 1117.45C569.507 1118.75 568.268 1120.55 567.428 1122.84C566.587 1125.14 566.166 1127.8 566.166 1130.82C566.166 1133.86 566.587 1136.56 567.428 1138.9C568.291 1141.22 569.53 1143.03 571.143 1144.35C572.78 1145.65 574.791 1146.3 577.178 1146.3ZM638.175 1158.02C632.788 1158.02 628.152 1156.93 624.266 1154.75C620.402 1152.55 617.425 1149.43 615.334 1145.41C613.243 1141.36 612.197 1136.58 612.197 1131.06C612.197 1125.67 613.243 1120.94 615.334 1116.88C617.425 1112.81 620.368 1109.64 624.163 1107.36C627.982 1105.09 632.459 1103.95 637.595 1103.95C641.05 1103.95 644.266 1104.51 647.243 1105.62C650.243 1106.72 652.857 1108.36 655.084 1110.57C657.334 1112.77 659.084 1115.55 660.334 1118.89C661.584 1122.2 662.209 1126.09 662.209 1130.55V1134.53H617.993V1125.53H648.538C648.538 1123.44 648.084 1121.59 647.175 1119.98C646.266 1118.36 645.004 1117.1 643.391 1116.19C641.8 1115.26 639.947 1114.8 637.834 1114.8C635.629 1114.8 633.675 1115.31 631.97 1116.33C630.288 1117.33 628.97 1118.68 628.016 1120.39C627.061 1122.07 626.572 1123.94 626.55 1126.01V1134.57C626.55 1137.16 627.027 1139.4 627.982 1141.28C628.959 1143.17 630.334 1144.62 632.107 1145.65C633.879 1146.67 635.982 1147.18 638.413 1147.18C640.027 1147.18 641.504 1146.95 642.845 1146.5C644.186 1146.05 645.334 1145.36 646.288 1144.45C647.243 1143.55 647.97 1142.43 648.47 1141.11L661.902 1142C661.22 1145.23 659.822 1148.05 657.709 1150.45C655.618 1152.84 652.913 1154.7 649.595 1156.05C646.3 1157.36 642.493 1158.02 638.175 1158.02ZM671.959 1157V1087.18H699.504C704.8 1087.18 709.311 1088.19 713.038 1090.22C716.766 1092.22 719.607 1095 721.561 1098.57C723.538 1102.11 724.527 1106.2 724.527 1110.84C724.527 1115.48 723.527 1119.57 721.527 1123.11C719.527 1126.66 716.629 1129.42 712.834 1131.4C709.061 1133.37 704.493 1134.36 699.129 1134.36H681.572V1122.53H696.743C699.584 1122.53 701.925 1122.05 703.766 1121.07C705.629 1120.07 707.016 1118.69 707.925 1116.94C708.857 1115.17 709.322 1113.14 709.322 1110.84C709.322 1108.52 708.857 1106.5 707.925 1104.77C707.016 1103.02 705.629 1101.67 703.766 1100.72C701.902 1099.74 699.538 1099.25 696.675 1099.25H686.72V1157H671.959ZM748.365 1087.18V1157H733.842V1087.18H748.365ZM793.578 1134.7V1104.64H808.101V1157H794.158V1147.49H793.612C792.43 1150.56 790.464 1153.02 787.714 1154.89C784.987 1156.75 781.658 1157.68 777.726 1157.68C774.226 1157.68 771.146 1156.89 768.487 1155.3C765.828 1153.7 763.749 1151.44 762.249 1148.51C760.771 1145.58 760.021 1142.07 759.999 1137.98V1104.64H774.521V1135.39C774.544 1138.48 775.374 1140.92 777.01 1142.72C778.646 1144.51 780.839 1145.41 783.589 1145.41C785.339 1145.41 786.976 1145.01 788.499 1144.22C790.021 1143.4 791.249 1142.19 792.18 1140.6C793.135 1139.01 793.601 1137.05 793.578 1134.7ZM863.286 1119.57L849.99 1120.39C849.763 1119.25 849.274 1118.23 848.524 1117.32C847.774 1116.39 846.786 1115.65 845.558 1115.1C844.354 1114.53 842.911 1114.25 841.229 1114.25C838.979 1114.25 837.081 1114.73 835.536 1115.68C833.99 1116.61 833.217 1117.86 833.217 1119.43C833.217 1120.68 833.717 1121.74 834.717 1122.6C835.717 1123.47 837.433 1124.16 839.865 1124.68L849.342 1126.59C854.433 1127.64 858.229 1129.32 860.729 1131.64C863.229 1133.95 864.479 1137 864.479 1140.77C864.479 1144.2 863.467 1147.22 861.445 1149.81C859.445 1152.4 856.695 1154.42 853.195 1155.88C849.717 1157.31 845.706 1158.02 841.161 1158.02C834.229 1158.02 828.706 1156.58 824.592 1153.69C820.501 1150.78 818.104 1146.83 817.399 1141.83L831.683 1141.08C832.115 1143.19 833.161 1144.81 834.82 1145.92C836.479 1147.01 838.604 1147.56 841.195 1147.56C843.74 1147.56 845.786 1147.07 847.331 1146.09C848.899 1145.09 849.695 1143.81 849.717 1142.24C849.695 1140.92 849.138 1139.84 848.047 1139C846.956 1138.14 845.274 1137.48 843.001 1137.02L833.933 1135.22C828.82 1134.19 825.013 1132.42 822.513 1129.9C820.036 1127.37 818.797 1124.16 818.797 1120.25C818.797 1116.89 819.706 1113.99 821.524 1111.56C823.365 1109.12 825.945 1107.25 829.263 1105.93C832.604 1104.61 836.513 1103.95 840.99 1103.95C847.604 1103.95 852.808 1105.35 856.604 1108.15C860.422 1110.94 862.649 1114.75 863.286 1119.57Z" fill="#7CC7B9"/>
</g>
<defs>
<clipPath id="clip0_9_15">
<rect width="1200" height="1200" fill="none"/>
</clipPath>
</defs>
</svg>
